Coordinates
version=1
nRows=21
nColumns=12
inDegrees=yes

Units are S.I. units (second, meters, Newtons, ...)
Angles are in degrees

endheader
time	SC_y	SC_z	SC_x	AC_y	AC_z	AC_x	GH_y	GH_z	GH_yy	EL_x	PS_y
       0.0              -15.56          16.79          63.61           47.6          5.088          8.239         -64.59          81.89         -101.0           75.7          93.82
   0.01503              -15.56          16.79          63.61           47.6          5.085          8.241          -64.6          81.89         -101.0           75.7          93.82
   0.03005              -15.57          16.79          63.61           47.6          5.081          8.242         -64.61          81.88         -101.0           75.7          93.81
   0.04508              -15.57          16.79          63.62           47.6          5.077          8.244         -64.63          81.87         -100.9           75.7          93.81
    0.0601              -15.57          16.79          63.62          47.61          5.073          8.246         -64.64          81.86         -100.9           75.7          93.81
   0.07513              -15.57          16.78          63.62          47.61          5.068          8.248         -64.66          81.85         -100.9           75.7           93.8
   0.09016              -15.58          16.78          63.63          47.61          5.063           8.25         -64.68          81.84         -100.9           75.7           93.8
    0.1052              -15.58          16.78          63.63          47.62          5.058          8.252          -64.7          81.83         -100.8           75.7           93.8
    0.1202              -15.59          16.78          63.63          47.62          5.053          8.254         -64.72          81.82         -100.8           75.7          93.79
    0.1352              -15.59          16.77          63.64          47.63          5.047          8.257         -64.74           81.8         -100.8           75.7          93.79
    0.1503              -15.59          16.77          63.64          47.63          5.041           8.26         -64.76          81.79         -100.7           75.7          93.78
    0.1653               -15.6          16.77          63.65          47.63          5.034          8.263         -64.79          81.78         -100.7           75.7          93.78
    0.1803               -15.6          16.76          63.65          47.64          5.026          8.266         -64.82          81.76         -100.6           75.7          93.77
    0.1953              -15.61          16.76          63.66          47.65          5.018          8.269         -64.84          81.74         -100.6          75.71          93.77
    0.2104              -15.62          16.75          63.66          47.65           5.01          8.273         -64.88          81.72         -100.5          75.71          93.76
    0.2254              -15.62          16.75          63.67          47.66            5.0          8.277         -64.91           81.7         -100.5          75.71          93.75
    0.2404              -15.63          16.74          63.68          47.67           4.99          8.281         -64.95          81.68         -100.4          75.71          93.75
    0.2554              -15.64          16.74          63.68          47.67          4.979          8.286         -64.99          81.66         -100.3          75.71          93.74
    0.2705              -15.64          16.73          63.69          47.68          4.967          8.291         -65.03          81.63         -100.3          75.71          93.73
    0.2855              -15.65          16.73           63.7          47.69          4.954          8.297         -65.08           81.6         -100.2          75.71          93.72
    0.3005              -15.66          16.72          63.71           47.7          4.939          8.303         -65.14          81.57         -100.1          75.72          93.71
